<?xml version="1.0" encoding="UTF-8"?>
<svg id="Capa_2" data-name="Capa 2" xmlns="http://www.w3.org/2000/svg" viewBox="0 0 591 451.75">
  <defs>
    <style>
      .cls-1 {
        fill: #000;
      }

      .cls-1, .cls-2 {
        stroke-width: 0px;
      }

      .cls-2 {
        fill: #fff;
      }
    </style>
  </defs>
  <g id="Capa_1-2" data-name="Capa 1">
    <g>
      <path class="cls-1" d="M591,208.88v61.97c-.31.11-.62.24-.94.33-16.23,4.33-32.46,8.65-48.69,12.98-.78.21-1.55.47-2.52.76v137.82c-3.01.79-5.82,1.53-8.62,2.28-26.1,6.99-52.2,14.01-78.3,20.97-2.8.75-5.66,1.75-8.5,1.78-18.91.16-37.82.08-56.73.08-.64,0-1.28-.12-2.12-.2-.08-1.86-.21-3.59-.21-5.32-.03-5.41,0-10.82-.02-16.24,0-1.54-.14-3.08-.22-4.71-.78.18-1.27.27-1.75.4-28.05,7.76-56.11,15.53-84.16,23.3-7.86,2.18-15.71,4.38-23.83,5.44-2.97.39-5.93.82-8.89,1.23h-11c-.72-.16-1.43-.4-2.16-.47-11.11-1.11-21.8-3.79-31.91-8.58-1.13-.54-2.18-.61-3.36-.29-6.19,1.65-12.39,3.22-18.58,4.88-2.51.67-5.02,1.02-7.63,1.01-16.08-.07-32.16-.05-48.25-.06-6.33,0-12.66-.04-19,.01-3.11.02-5.46-1.22-7.14-3.81-.63-.98-1.26-1.96-1.88-2.95-1.33-2.1-2.66-4.2-4-6.32-.63.09-1.13.11-1.6.24-13.09,3.51-26.2,6.98-39.27,10.56-4.6,1.26-9.19,1.98-14,1.94-17.16-.15-34.33-.06-51.49-.06-1.41,0-2.83-.06-4.24-.1,0-68.8,0-137.59,0-206.39,7.88-2.9,15.76-5.78,23.63-8.7,17.7-6.55,35.39-13.12,53.09-19.69,3.58-1.33,7.15-2.66,10.87-4.05,0-1.03,0-1.93,0-2.83-.01-36.72-.02-73.45-.04-110.17-.01-17.24-.05-34.47-.08-51.71,0-2.58,0-5.16.02-7.74.02-2.26,1.09-3.65,3.29-4.43,18.82-6.67,37.61-13.4,56.41-20.12C158.29,7.96,169.4,3.98,180.5,0c6.67,0,13.33,0,20,0,.91.09,1.81.24,2.72.25,17.08.08,34.16.18,51.24.2,11.26.01,22.48.44,33.59,2.51,21.4,3.98,39.91,13.51,55.5,28.71.53.51,1.08,1,1.56,1.44.52-.23.89-.42,1.27-.57,28.01-10.34,56.01-20.68,84.04-30.97,1.3-.48,2.75-.72,4.13-.73,21.08-.04,42.17-.03,63.25-.03.81,0,1.62.08,2.54.13.06.74.15,1.3.14,1.86-.04,16.16-.09,32.31-.15,48.47-.1,24.06-.23,48.13-.3,72.19-.02,6.32.52,12.68-.65,18.94-4.93,26.31-19.2,45.65-43.34,57.51-6.69,3.29-13.91,5.04-21.05,6.99-1.81.49-3.61,1.03-5.41,1.55.02.15.04.3.06.45.87,0,1.74,0,2.61,0,15.25,0,30.5,0,45.75,0,37.67,0,75.33-.01,113-.02ZM178.51,205.35c1.35,0,2.26,0,3.17,0,12.91-.1,25.82-.24,38.73-.3,16.57-.08,33.15.05,49.7-1.16,6.56-.48,13.1-1.1,19.56-2.42,43.55-8.87,76.22-44.98,78.73-92.62.6-11.37-.6-22.61-3.43-33.65-4.2-16.42-12.05-30.79-24.42-42.51-18.33-17.37-40.39-26.34-65.39-28.15-9.62-.7-19.3-.81-28.96-.89-20.57-.18-41.15-.16-61.73-.21-5.16-.01-6.18.99-6.18,6.09,0,7.74.06,15.49.06,23.23.04,35.8.07,71.6.1,107.4.02,20.73.03,41.46.05,62.19,0,.89,0,1.79,0,2.99ZM304.34,206.29c-.08-.14-.15-.28-.23-.43-.61.21-1.22.41-1.83.62-4.66,1.54-9.28,3.18-13.98,4.6-4.16,1.26-8.44,1.74-12.82,1.73-18.74-.04-37.49.1-56.23.05-5-.01-8.77,1.82-11.72,5.86-4.67,6.39-9.51,12.65-14.32,18.93-11.8,15.4-23.61,30.8-35.45,46.17-1.24,1.61-2.69,3.05-4.04,4.57-.2-.08-.4-.16-.6-.24v-58.84c0-2.83.02-5.66,0-8.49-.02-2.79.1-5.58-.08-8.29h-61.45c-.48,4.52-.28,204.81.19,206.64h61.91v-68.5c0-2.83-.04-5.66.01-8.49.05-2.77-.22-5.57.18-8.44,1.86.08,2.26,1.42,2.88,2.4,16.55,26.08,33.12,52.14,49.57,78.29,2.34,3.73,5.25,5.46,9.65,5.27,5.16-.22,10.33-.1,15.49-.1,17.16.03,34.33.07,51.49.1.8,0,1.6-.07,2.94-.12-24.3-36.49-48.41-72.56-72.5-108.73,1-1.25,1.84-2.39,2.76-3.45,11.79-13.59,23.46-27.28,35.41-40.72,15.44-17.37,31.3-34.36,46.15-52.24,2.23-2.69,4.41-5.41,6.61-8.12ZM273.37,384.25c3.5,3.61,6.84,6.97,10.09,10.41,5.89,6.23,12.73,11.22,20.14,15.45,14.23,8.12,29.48,12.5,45.92,12.71,14.95.2,29.33-2.65,43.15-8.13,15.28-6.05,27.1-16.17,34.48-31.02,6.45-12.97,9.1-26.73,7.43-41.18-2.04-17.55-10.43-31.35-24.95-41.41-6.42-4.45-13.47-7.63-20.96-9.76-8-2.28-16.07-4.3-24.09-6.52-4.5-1.24-8.89-2.79-12.87-5.33-3.94-2.51-5.59-6.21-5.79-10.72-.1-2.25.79-4.14,2.55-5.43,1.32-.96,2.84-1.96,4.4-2.22,3.59-.61,7.27-1.18,10.89-1.04,8.74.35,16.51,3.6,23.45,8.87.64.49,1.31.95,2.06,1.5,10.98-11.78,21.85-23.45,32.7-35.1-5.1-5.13-10.62-9.7-15.93-12.98-17.13-10.56-35.78-14.95-55.82-13.63-15.61,1.03-29.75,6.06-42.23,15.59-11.59,8.85-19.69,20.04-22.76,34.45-2.51,11.78-1.92,23.51,1.6,35.04,3.46,11.35,10.01,20.57,19.49,27.72,7.27,5.48,15.37,9.25,24.07,11.82,8.29,2.45,16.6,4.87,24.85,7.46,3.4,1.07,6.73,2.43,9.99,3.88,8.78,3.91,9.22,16.88,2.64,22.11-2.61,2.07-5.54,3.39-8.77,3.99-6.93,1.29-13.76.68-20.49-1.32-8.83-2.63-16.19-7.67-22.82-13.9-1.89-1.78-3.65-3.64-4.77-6.04-.15-.31-.48-.54-1.07-1.19.34,1.98-.47,2.93-1.51,3.87-7.78,7.05-15.51,14.14-23.26,21.22-3.87,3.54-7.73,7.08-11.81,10.81ZM426.7,267.25c.77.05,1.34.12,1.91.12,11.66,0,23.33-.02,34.99-.04,2.42,0,4.83-.1,7.25-.01,2.62.1,3.77,1.21,4.06,3.81.13,1.15.11,2.33.11,3.49,0,21.9,0,43.8,0,65.7.01,24.31.03,48.63.08,72.94,0,1.96.26,3.92.4,5.88h60.59c0-.97,0-1.79,0-2.61.04-16.82.08-33.64.11-50.46.05-24.56.09-49.13.12-73.69,0-6.33-.09-12.65-.1-18.98,0-1.16.1-2.33.29-3.48.24-1.49,1.2-2.35,2.69-2.54.74-.1,1.5-.1,2.24-.1,14.83.03,29.66.06,44.49.1.81,0,1.62,0,2.39,0,.59-3.38.43-53.28-.11-54.93h-161.49v54.8ZM436.29,4.2c-.08,1.53-.23,2.92-.23,4.32-.06,32.8-.05,65.61-.19,98.41-.03,7.82-.41,15.64-.92,23.44-.74,11.3-9.37,19.22-20.7,19.08-7.6-.09-14.55-2.54-20.9-6.64-6.58-4.25-11.48-10.05-15.31-16.84-.5-.89-.72-2.02-1.91-2.63-4.28,20.9-13.66,39.24-26.95,55.96,4.89,3.43,9.36,6.93,14.17,9.88,13.34,8.17,27.88,12.89,43.48,14.28,11.01.98,21.97.75,32.81-1.56,38.56-8.23,58.98-43.2,57.96-72.8-.6-17.46-.31-34.95-.24-52.43.1-23.39.37-46.78.56-70.17,0-.73-.09-1.45-.15-2.3h-61.48Z"/>
      <path class="cls-2" d="M178.51,205.35c0-1.2,0-2.09,0-2.99-.02-20.73-.03-41.46-.05-62.19-.03-35.8-.06-71.6-.1-107.4,0-7.74-.06-15.49-.06-23.23,0-5.1,1.03-6.1,6.18-6.09,20.58.05,41.15.04,61.73.21,9.66.08,19.33.19,28.96.89,25,1.81,47.06,10.78,65.39,28.15,12.36,11.72,20.22,26.08,24.42,42.51,2.82,11.04,4.03,22.28,3.43,33.65-2.5,47.64-35.18,83.75-78.73,92.62-6.47,1.32-13,1.94-19.56,2.42-16.55,1.21-33.12,1.08-49.7,1.16-12.91.06-25.82.2-38.73.3-.91,0-1.82,0-3.17,0ZM242.29,149.11c.4.06.65.14.89.12,5.64-.45,11.29-.83,16.92-1.4,5.88-.6,11.72-1.46,17.35-3.39,13.22-4.53,22.13-13.23,25.77-26.88,2.29-8.58,2.48-17.28.58-25.95-2.18-9.99-7.64-17.76-16.28-23.29-5.62-3.6-11.77-5.75-18.33-6.84-8.19-1.36-16.42-1.09-24.66-.8-.73.03-1.46.19-2.24.3v88.15Z"/>
      <path class="cls-2" d="M304.34,206.29c-2.2,2.71-4.38,5.43-6.61,8.12-14.85,17.88-30.71,34.88-46.15,52.24-11.95,13.44-23.62,27.13-35.41,40.72-.92,1.06-1.76,2.2-2.76,3.45,24.08,36.16,48.2,72.24,72.5,108.73-1.34.06-2.14.13-2.94.12-17.16-.03-34.33-.07-51.49-.1-5.17,0-10.34-.12-15.49.1-4.39.18-7.3-1.55-9.65-5.27-16.44-26.15-33.02-52.21-49.57-78.29-.62-.98-1.02-2.32-2.88-2.4-.4,2.87-.13,5.67-.18,8.44-.05,2.83-.01,5.66-.01,8.49v68.5h-61.91c-.47-1.83-.67-202.12-.19-206.64h61.45c.18,2.71.06,5.5.08,8.29.02,2.83,0,5.66,0,8.49v58.84c.2.08.4.16.6.24,1.35-1.52,2.8-2.96,4.04-4.57,11.84-15.37,23.65-30.76,35.45-46.17,4.81-6.28,9.65-12.54,14.32-18.93,2.95-4.04,6.71-5.87,11.72-5.86,18.74.06,37.49-.09,56.23-.05,4.38,0,8.66-.47,12.82-1.73,4.69-1.42,9.32-3.06,13.98-4.6.61-.2,1.22-.41,1.83-.62.08.14.15.28.23.43Z"/>
      <path class="cls-2" d="M273.37,384.25c4.07-3.73,7.94-7.27,11.81-10.81,7.75-7.08,15.48-14.17,23.26-21.22,1.04-.94,1.85-1.89,1.51-3.87.6.65.93.87,1.07,1.19,1.11,2.39,2.87,4.26,4.77,6.04,6.64,6.23,14,11.27,22.82,13.9,6.73,2,13.56,2.6,20.49,1.32,3.23-.6,6.17-1.92,8.77-3.99,6.58-5.22,6.14-18.2-2.64-22.11-3.26-1.45-6.59-2.81-9.99-3.88-8.25-2.59-16.56-5.01-24.85-7.46-8.7-2.57-16.81-6.34-24.07-11.82-9.47-7.14-16.03-16.37-19.49-27.72-3.52-11.53-4.11-23.26-1.6-35.04,3.07-14.41,11.17-25.6,22.76-34.45,12.48-9.52,26.62-14.56,42.23-15.59,20.04-1.33,38.69,3.07,55.82,13.63,5.31,3.27,10.83,7.84,15.93,12.98-10.86,11.65-21.72,23.31-32.7,35.1-.75-.55-1.42-1.01-2.06-1.5-6.94-5.28-14.71-8.53-23.45-8.87-3.62-.14-7.3.44-10.89,1.04-1.55.26-3.08,1.26-4.4,2.22-1.76,1.29-2.65,3.18-2.55,5.43.2,4.51,1.85,8.21,5.79,10.72,3.98,2.54,8.37,4.08,12.87,5.33,8.02,2.22,16.09,4.24,24.09,6.52,7.49,2.13,14.54,5.31,20.96,9.76,14.52,10.06,22.92,23.86,24.95,41.41,1.68,14.45-.97,28.2-7.43,41.18-7.38,14.84-19.2,24.96-34.48,31.02-13.83,5.48-28.21,8.32-43.15,8.13-16.44-.22-31.7-4.59-45.92-12.71-7.42-4.23-14.25-9.23-20.14-15.45-3.26-3.44-6.59-6.81-10.09-10.41Z"/>
      <path class="cls-2" d="M426.7,267.25v-54.8h161.49c.54,1.65.7,51.55.11,54.93-.76,0-1.58,0-2.39,0-14.83-.03-29.66-.07-44.49-.1-.75,0-1.5,0-2.24.1-1.49.2-2.45,1.06-2.69,2.54-.18,1.15-.29,2.32-.29,3.48.01,6.33.11,12.65.1,18.98-.02,24.56-.07,49.13-.12,73.69-.03,16.82-.08,33.64-.11,50.46,0,.82,0,1.63,0,2.61h-60.59c-.14-1.96-.4-3.92-.4-5.88-.05-24.31-.07-48.63-.08-72.94-.01-21.9,0-43.8,0-65.7,0-1.16.02-2.34-.11-3.49-.29-2.59-1.43-3.71-4.06-3.81-2.41-.09-4.83,0-7.25.01-11.66.02-23.33.03-34.99.04-.57,0-1.14-.07-1.91-.12Z"/>
      <path class="cls-2" d="M436.29,4.2h61.48c.06.85.15,1.58.15,2.3-.19,23.39-.46,46.78-.56,70.17-.07,17.48-.37,34.97.24,52.43,1.02,29.61-19.4,64.58-57.96,72.8-10.84,2.31-21.8,2.54-32.81,1.56-15.6-1.39-30.14-6.11-43.48-14.28-4.81-2.95-9.28-6.44-14.17-9.88,13.29-16.72,22.68-35.06,26.95-55.96,1.19.6,1.41,1.74,1.91,2.63,3.82,6.78,8.72,12.59,15.31,16.84,6.35,4.1,13.3,6.55,20.9,6.64,11.34.14,19.96-7.78,20.7-19.08.51-7.8.88-15.63.92-23.44.14-32.8.13-65.61.19-98.41,0-1.39.15-2.79.23-4.32Z"/>
      <path class="cls-1" d="M242.29,149.11V60.97c.78-.11,1.51-.27,2.24-.3,8.24-.28,16.48-.56,24.66.8,6.56,1.09,12.71,3.24,18.33,6.84,8.63,5.53,14.1,13.31,16.28,23.29,1.89,8.67,1.71,17.37-.58,25.95-3.65,13.66-12.55,22.35-25.77,26.88-5.63,1.93-11.47,2.79-17.35,3.39-5.63.57-11.28.95-16.92,1.4-.24.02-.48-.06-.89-.12Z"/>
    </g>
  </g>
</svg>